<?xml version="1.0" encoding="UTF-8" standalone="no"?>
<!-- Created with Inkscape (http://www.inkscape.org/) -->

<svg
   width="6.3499999mm"
   height="6.3499999mm"
   viewBox="0 0 6.3499998 6.3499998"
   version="1.1"
   id="svg1"
   xml:space="preserve"
   xmlns="http://www.w3.org/2000/svg"
   xmlns:svg="http://www.w3.org/2000/svg"><defs
     id="defs1" /><g
     id="layer1"
     transform="translate(7.8577238)"><g
       id="g128"
       transform="matrix(1.0432737,0,0,1.0432737,0.20263598,-0.13738838)"
       style="stroke-width:0.958521"><g
         id="g89"
         transform="translate(-89.072917,0.0133515)"
         style="stroke-width:0.958521"><circle
           style="fill:#000000;fill-opacity:1;stroke:#000000;stroke-width:0.507216;stroke-linecap:round;stroke-linejoin:miter;stroke-miterlimit:5"
           id="path86"
           cx="83.734375"
           cy="4.7494087"
           r="0.1322915" /><circle
           style="fill:#000000;fill-opacity:1;stroke:#000000;stroke-width:0.507216;stroke-linecap:round;stroke-linejoin:miter;stroke-miterlimit:5"
           id="circle86"
           cx="85.851044"
           cy="4.7494087"
           r="0.1322915" /></g><path
         d="m -6.9549843,1.190209 c -0.01827,6.28e-5 -0.036276,0.00187 -0.053496,0.00545 -0.01722,0.00359 -0.033723,0.0091 -0.049533,0.015851 -0.01581,0.00675 -0.031025,0.015203 -0.045075,0.024766 -0.01404,0.00956 -0.027201,0.020179 -0.039131,0.032196 -0.01193,0.012018 -0.022737,0.02551 -0.032196,0.039626 -0.0095,0.014116 -0.017631,0.028723 -0.024271,0.04458 -0.0066,0.015858 -0.0114,0.032785 -0.01486,0.050028 -0.0035,0.017243 -0.00495,0.034728 -0.00495,0.053 6.3e-5,0.018177 0.00185,0.035862 0.00545,0.053 0.0036,0.017137 0.00817,0.03428 0.01486,0.050028 0.0067,0.015748 0.015287,0.030075 0.024766,0.044084 0.0095,0.014009 0.020276,0.027707 0.032197,0.039626 0.01192,0.01192 0.024626,0.022221 0.038636,0.031701 0.01401,0.00948 0.029325,0.01758 0.045075,0.024271 0.01575,0.00669 0.031898,0.012299 0.049038,0.015851 0.01714,0.00355 0.035316,0.00489 0.053496,0.00495 l 0.5423859,4.953e-4 0.092131,0.3358335 0.5562551,2.0194587 h 2.4350402 0.531984 l 0.1461222,-0.529012 0.5042455,-1.8262802 h -3.1993337 l 0.1421595,0.529012 h 2.3731241 l -0.3541607,1.2972682 h -0.014364 -1.9644772 -0.2169543 L -5.8702125,1.7197163 -5.943026,1.4552103 -6.0158394,1.1907043 C -6.4656407,1.1904472 -6.5051831,1.190209 -6.9549843,1.190209 Z"
         style="stroke-linecap:round;stroke-miterlimit:5"
         id="path143" /></g></g></svg>
