<?xml version="1.0" encoding="UTF-8" standalone="no"?>
<!-- Created with Inkscape (http://www.inkscape.org/) -->

<svg
   width="6.3499999mm"
   height="6.3499999mm"
   viewBox="0 0 6.3499998 6.3499998"
   version="1.1"
   id="svg1"
   xml:space="preserve"
   xmlns="http://www.w3.org/2000/svg"
   xmlns:svg="http://www.w3.org/2000/svg"><defs
     id="defs1" /><g
     id="layer1"
     transform="translate(-98.216905,-12.700001)"><g
       id="g174-3"
       transform="matrix(0.89974322,0,0,0.89582778,17.72353,-21.100293)"
       style="stroke-width:1.11385"><g
         id="g171-1"
         transform="matrix(0,0.71070267,-0.71070267,0,115.96061,-23.51161)"
         style="stroke-width:1.56726"><path
           style="fill:none;fill-opacity:1;stroke:#030000;stroke-width:0.829342;stroke-linecap:round;stroke-miterlimit:5;stroke-opacity:1"
           d="m 90.607702,34.925011 1.101652,-1.116848"
           id="path170-4" /><path
           style="fill:none;fill-opacity:1;stroke:#030000;stroke-width:0.829342;stroke-linecap:round;stroke-miterlimit:5;stroke-opacity:1"
           d="m 90.607702,34.925011 1.101652,1.116847"
           id="path171-9" /></g><path
         id="path169-7"
         style="fill:none;stroke:#030000;stroke-width:0.589413;stroke-linecap:round;stroke-miterlimit:5"
         d="m 94.305411,42.580213 c -0.335503,0.337752 -0.800338,0.546873 -1.314017,0.546873 -1.022878,0 -1.852084,-0.829206 -1.852084,-1.852084 m 0.536513,-1.303645 c 0.335621,-0.338672 0.801099,-0.54844 1.315571,-0.54844 1.022878,0 1.852084,0.829207 1.852084,1.852085" /><g
         id="g173-4"
         transform="matrix(0,-0.71070267,-0.71070267,0,119.6648,106.06161)"
         style="stroke-width:1.56726"><path
           style="fill:none;fill-opacity:1;stroke:#030000;stroke-width:0.829342;stroke-linecap:round;stroke-miterlimit:5;stroke-opacity:1"
           d="m 90.607702,34.925011 1.101652,-1.116848"
           id="path172-4" /><path
           style="fill:none;fill-opacity:1;stroke:#030000;stroke-width:0.829342;stroke-linecap:round;stroke-miterlimit:5;stroke-opacity:1"
           d="m 90.607702,34.925011 1.101652,1.116847"
           id="path173-8" /></g></g></g></svg>
